<mxfile host="app.diagrams.net" modified="2023-10-12T02:19:00.340Z" agent="Mozilla/5.0 (Windows NT 10.0; Win64; x64) AppleWebKit/537.36 (KHTML, like Gecko) Chrome/118.0.0.0 Safari/537.36" etag="Kc6n2h_rFt7aNuEHDBzQ" version="22.0.4" type="google">
  <diagram name="Page-1" id="2YBvvXClWsGukQMizWep">
    <mxGraphModel grid="1" page="1" gridSize="10" guides="1" tooltips="1" connect="1" arrows="1" fold="1" pageScale="1" pageWidth="850" pageHeight="1100" math="0" shadow="0">
      <root>
        <mxCell id="0" />
        <mxCell id="1" parent="0" />
        <mxCell id="aM9ryv3xv72pqoxQDRHE-1" value="&lt;i&gt;InstanciaGoogle :&lt;/i&gt;&lt;br&gt;&lt;b&gt;GoogleMaps&lt;/b&gt;" style="shape=umlLifeline;perimeter=lifelinePerimeter;whiteSpace=wrap;html=1;container=0;dropTarget=0;collapsible=0;recursiveResize=0;outlineConnect=0;portConstraint=eastwest;newEdgeStyle={&quot;edgeStyle&quot;:&quot;elbowEdgeStyle&quot;,&quot;elbow&quot;:&quot;vertical&quot;,&quot;curved&quot;:0,&quot;rounded&quot;:0};" vertex="1" parent="1">
          <mxGeometry x="640" y="420" width="100" height="260" as="geometry" />
        </mxCell>
        <mxCell id="aM9ryv3xv72pqoxQDRHE-2" value="" style="html=1;points=[];perimeter=orthogonalPerimeter;outlineConnect=0;targetShapes=umlLifeline;portConstraint=eastwest;newEdgeStyle={&quot;edgeStyle&quot;:&quot;elbowEdgeStyle&quot;,&quot;elbow&quot;:&quot;vertical&quot;,&quot;curved&quot;:0,&quot;rounded&quot;:0};" vertex="1" parent="aM9ryv3xv72pqoxQDRHE-1">
          <mxGeometry x="45" y="110" width="10" height="70" as="geometry" />
        </mxCell>
        <mxCell id="HJQ2WrZzmwikBVrHChBw-2" value="&lt;i&gt;maps :&lt;br&gt;&lt;/i&gt;&lt;b&gt;AdaptadorGoogleMaps&lt;/b&gt;" style="shape=umlLifeline;perimeter=lifelinePerimeter;whiteSpace=wrap;html=1;container=0;dropTarget=0;collapsible=0;recursiveResize=0;outlineConnect=0;portConstraint=eastwest;newEdgeStyle={&quot;edgeStyle&quot;:&quot;elbowEdgeStyle&quot;,&quot;elbow&quot;:&quot;vertical&quot;,&quot;curved&quot;:0,&quot;rounded&quot;:0};" vertex="1" parent="1">
          <mxGeometry x="403" y="420" width="140" height="260" as="geometry" />
        </mxCell>
        <mxCell id="HJQ2WrZzmwikBVrHChBw-3" value="" style="html=1;points=[];perimeter=orthogonalPerimeter;outlineConnect=0;targetShapes=umlLifeline;portConstraint=eastwest;newEdgeStyle={&quot;edgeStyle&quot;:&quot;elbowEdgeStyle&quot;,&quot;elbow&quot;:&quot;vertical&quot;,&quot;curved&quot;:0,&quot;rounded&quot;:0};" vertex="1" parent="HJQ2WrZzmwikBVrHChBw-2">
          <mxGeometry x="65" y="90" width="10" height="90" as="geometry" />
        </mxCell>
        <mxCell id="uAsUkdCC7uXKx1wc8Jlj-1" value="3-&lt;br&gt;+ getAddress((double)x,(double)&lt;br&gt;y)" style="html=1;verticalAlign=bottom;endArrow=block;edgeStyle=elbowEdgeStyle;elbow=vertical;curved=0;rounded=0;" edge="1" parent="1">
          <mxGeometry x="-0.0019" relative="1" as="geometry">
            <mxPoint x="478" y="540" as="sourcePoint" />
            <Array as="points" />
            <mxPoint as="offset" />
            <mxPoint x="689.5" y="540" as="targetPoint" />
          </mxGeometry>
        </mxCell>
        <mxCell id="HJQ2WrZzmwikBVrHChBw-4" value="&lt;i&gt;cliente :&lt;/i&gt;&lt;br&gt;&lt;b&gt;Mapeador&lt;/b&gt;" style="shape=umlLifeline;perimeter=lifelinePerimeter;whiteSpace=wrap;html=1;container=0;dropTarget=0;collapsible=0;recursiveResize=0;outlineConnect=0;portConstraint=eastwest;newEdgeStyle={&quot;edgeStyle&quot;:&quot;elbowEdgeStyle&quot;,&quot;elbow&quot;:&quot;vertical&quot;,&quot;curved&quot;:0,&quot;rounded&quot;:0};" vertex="1" parent="1">
          <mxGeometry x="273" y="420" width="100" height="260" as="geometry" />
        </mxCell>
        <mxCell id="HJQ2WrZzmwikBVrHChBw-5" value="" style="html=1;points=[];perimeter=orthogonalPerimeter;outlineConnect=0;targetShapes=umlLifeline;portConstraint=eastwest;newEdgeStyle={&quot;edgeStyle&quot;:&quot;elbowEdgeStyle&quot;,&quot;elbow&quot;:&quot;vertical&quot;,&quot;curved&quot;:0,&quot;rounded&quot;:0};" vertex="1" parent="HJQ2WrZzmwikBVrHChBw-4">
          <mxGeometry x="45" y="60" width="10" height="160" as="geometry" />
        </mxCell>
        <mxCell id="HJQ2WrZzmwikBVrHChBw-6" value="2-&lt;br&gt;+ obtenerDireccion(x,y)" style="html=1;verticalAlign=bottom;endArrow=block;edgeStyle=elbowEdgeStyle;elbow=vertical;curved=0;rounded=0;" edge="1" parent="1" source="HJQ2WrZzmwikBVrHChBw-5" target="HJQ2WrZzmwikBVrHChBw-3">
          <mxGeometry relative="1" as="geometry">
            <mxPoint x="272.5" y="520" as="sourcePoint" />
            <Array as="points">
              <mxPoint x="400" y="520" />
            </Array>
            <mxPoint as="offset" />
            <mxPoint x="398" y="520" as="targetPoint" />
          </mxGeometry>
        </mxCell>
        <mxCell id="9dg1Qpggz0v6w3t59ocL-12" value="&lt;i&gt;direccion&lt;/i&gt;" style="html=1;verticalAlign=bottom;endArrow=open;dashed=1;endSize=8;curved=0;rounded=0;" edge="1" parent="1">
          <mxGeometry x="0.0355" relative="1" as="geometry">
            <mxPoint x="689.5" y="570" as="sourcePoint" />
            <mxPoint x="478" y="570" as="targetPoint" />
            <mxPoint x="1" as="offset" />
            <Array as="points" />
          </mxGeometry>
        </mxCell>
        <mxCell id="HJQ2WrZzmwikBVrHChBw-9" value="1-&lt;br&gt;+ getDireccion(x,y)" style="html=1;verticalAlign=bottom;startArrow=oval;startFill=1;endArrow=block;startSize=8;curved=0;rounded=0;" edge="1" parent="1" target="HJQ2WrZzmwikBVrHChBw-5">
          <mxGeometry x="0.037" width="60" relative="1" as="geometry">
            <mxPoint x="193" y="500" as="sourcePoint" />
            <mxPoint x="323" y="500" as="targetPoint" />
            <mxPoint as="offset" />
          </mxGeometry>
        </mxCell>
        <mxCell id="yx-5aPdiAHtvrQA10NPm-6" value="&lt;b&gt;ENUNCIADO:&lt;br&gt;&lt;/b&gt;" style="text;html=1;strokeColor=#d79b00;fillColor=#ffcd28;align=center;verticalAlign=middle;whiteSpace=wrap;rounded=0;gradientColor=#ffa500;" vertex="1" parent="1">
          <mxGeometry x="30" y="340" width="130" height="50" as="geometry" />
        </mxCell>
        <mxCell id="ToEpiLO9f7POj9ov01aA-2" value="&lt;i&gt;direccion&lt;/i&gt;" style="html=1;verticalAlign=bottom;endArrow=open;dashed=1;endSize=8;curved=0;rounded=0;" edge="1" parent="1" source="HJQ2WrZzmwikBVrHChBw-3" target="HJQ2WrZzmwikBVrHChBw-5">
          <mxGeometry x="-0.0286" relative="1" as="geometry">
            <mxPoint x="470" y="570" as="sourcePoint" />
            <mxPoint x="340" y="570" as="targetPoint" />
            <mxPoint as="offset" />
            <Array as="points">
              <mxPoint x="390" y="590" />
            </Array>
          </mxGeometry>
        </mxCell>
        <mxCell id="ToEpiLO9f7POj9ov01aA-4" value="&lt;i&gt;return&lt;br&gt;&lt;/i&gt;&lt;i style=&quot;border-color: var(--border-color);&quot;&gt;direccion&lt;/i&gt;&lt;i&gt;&lt;br&gt;&lt;/i&gt;" style="html=1;verticalAlign=bottom;endArrow=open;dashed=1;endSize=8;curved=0;rounded=0;" edge="1" parent="1" source="HJQ2WrZzmwikBVrHChBw-5">
          <mxGeometry x="-0.0286" relative="1" as="geometry">
            <mxPoint x="300" y="630" as="sourcePoint" />
            <mxPoint x="200" y="630" as="targetPoint" />
            <mxPoint as="offset" />
            <Array as="points">
              <mxPoint x="232" y="630" />
            </Array>
          </mxGeometry>
        </mxCell>
        <mxCell id="Qp9rmoJpb_zX2JSXNu10-1" value="" style="shape=image;verticalLabelPosition=bottom;labelBackgroundColor=default;verticalAlign=top;aspect=fixed;imageAspect=0;image=data:image/png,iVBORw0KGgoAAAANSUhEUgAAAp4AAAEVCAYAAABJ6eUVAAAgAElEQVR4Ae2dC/C1VVXGZRwZJ8xGh3FsqCEcTU1iKnJkwijtZjIOQ2NmCmGkY5g5kCOYY4LmDcjByDJGKAYvFIIKhKmhIIKSSCLJxfATHERJERKIQMIdv/P1/Fnf/vY5Z+9zfd/3PO/M//9e9t5rr/WsZ629zvuey8Me9rCHJf8ZA3PAHDAHzAFzwBwwB8yBFXDAIK8AZBf3foFjDpgD5oA5YA6YA+aAiy4X3uaAOWAOmAPmgDlgDpgDK+KAgV4R0H6V41e65oA5YA6YA+aAObDpHHDh6cLTHDAHzAFzwBwwB8wBc2AlHFjJJJte3dt+v8I1B8wBc8AcMAfMAXPA1b0Lb3PAHDAHzAFzwBwwB8yBFXHAQK8IaL/K8Stdc8AcMAfMAXPAHNh0DrjwdOFpDpgD5oA5YA6YA+aAObASDqxkkk2v7m2/X+GaA+aAOWAOmAPmgDng6t6FtzlgDpgD5oA5YA6YA+bAijhgoFcEtF/l+JWuOWAOmAPmgDlgDmw6B+oKz+TNCBiBjUDAL8TqcqJxethGxIONNAJGoB6ByrxYl2SZtlKg+/nVnDnQUw44zuvyoXPhdpzMF/PFsWAOiAMN+aAOtAaBLjp6WnSIPN7XxcQQcXKcb67vZ+Gz+WK+zMIbjxkmbxryQR0ADQJdeLrwNAd6ygHHeV0+9MK5HSfzxXxxLJgD4kBDPqgDrUGgi46eFh0ij/d1MTFEnBznm+v7Wfhsvpgvs/DGY4bJm4Z8UAdAg0AXni48zYGecsBxXpcPvXBux8l8MV8cC+aAONCQD+pAaxDooqOnRYfI431dTAwRJ8f55vp+Fj6bL+bLLLzxmGHypiEf1AHQINCFpwtPc6CnHHCc1+VDL5zbcTJfzBfHgjkgDjTkgzrQGgS66OhR0XHNNdekCy+80D7rkc8U5MvYO87r8uEysO+jTPNlc/jitWJzfD1rLmrIB3VgNgh0EdOjIsbJpI7/swZi38Y5zs2HFs6aL5vDF68Vm+PrlhwQ+zbkgzowGwS68HThaQ70iAMzJg77uKc+jv6e99jrQt36OS/OXRjvwnNzfD0r3xryQR2YDQK9IHV0QSJxaPvGN76Rnv3sZ6eYTN70pjel++67T122HsHTj/7a7rzzznTooYeO/jjWJpmzktbj6mJxmTjhy2XKt+z1+3iRPjBfhuVPccNrxTD9Kv8ua9+QD+oAbhDohWvNhaeKyVNPPXVUMFI48j5OrueEU9/8OoUlhSR75JTGIjN/fyhzbdu2LVHEjpszn8vndTG4Cpwc593xxSr8Pe8c5ku/+aL877Wi336cN44XNb4hH9QB3iBwp+JmUUZZznRflRKJ7liSXHIM1Z/r+R1P7n5yjeKTO5s6lwz11x1QXY/zufic7jPh1oW947xf/lo3Z8yX/vJFuT8WnTF359xSf64r9+N/Nq0NXiv6y4fc37Ocw4XKcXVANQisndj9FnxnVEGvYk+PvmuSCWO/853vjBIKxMnPuSY5eaGpefP50IO/vH8lMc2PBfOjBnfHeV0+rMFyE/qYL/3ki3K214p++q+ruaUhH9QB3yDQBcMaCoZIRL0yja9klWBiP47Vl1ewFJ4kJK4zVq9i4xiKTz1Kj9cZR+H5tre9bat93JxxnI/r4m9VODnOu+WPVfl91nnMl37zRfnfa0W//Thr/C56XEM+qAO8QaALzzUXniUy6W4lfmTT3UklHsZQKGqjuFSBSVKKG2Py/rQzvjS3r9XFWBdwwo9d0MM69IMz5ks//NQST14rhufTFv/P07chH9SB3CDQC1cHC895yOSxdTEyBJwc55vj60Xw1XwxXxbBI8sYBo8a8kGdwQ0CXXi68DQHesoBx3ldPvRCuR0n88V8cSyYA+JAQz6oA61BoIuOnhYdIo/3dTExRJwc55vr+1n4bL6YL7PwxmOGyZuGfFAHQINAF54uPM2BnnLAcV6XD71wbsfJfDFfHAvmgDjQkA/qQGsQ6KKjp0WHyON9XUwMESfH+eb6fhY+my/myyy88Zhh8qYhH9QB0CDQhacLT3OgpxxwnNflQy+c23EyX8wXx4I5IA405IM60BoEuuhYQtGhr7gofRm7vgxYX3MkEqxrz3eC8lVM6LwuHTxvXVznODnOZ8Mtx3FTzs2XbvJFawL+0aav0IObi/qOZX3VXumr9LhW+i7oTYmNTbQTrlXaXRc4DQJrJ3a/hgKVIo5ijsKTYI/OJcBvu+224u+px36rOnbhWRdTq/JHyzyO8/76rsXPi+prvnSTLxSe8Zfo8Dc3JhZ9c4K1iDUpv9Gg+VmXWA8WxTfL6Sbf5JeGfFBnSINAk6yhoJTDpu1VeF522WU7JI9x16fJW2a7C8+6mFqmD2aV7Tjvr+9m9fk848yXbvJFhV8s+igSl1F4UnTyl89Vuj4P1zy2m1yLfmnIB3XGNAh04bnEwpPkwSMTEgsOV5F35pln7pBUSDDa4uN57o5eeeWVo1eptOePQpDHtVLbOJkUv+ikTQmH6+iIznHjnOvYwLjzzjtv1LzopBgDwseOc3OgjgMtOBG4Lf3dd/E+KGGaF57K0Xokzl75VmsIeVub2pAd8zdrCeuHcjh7+iJPshnDNdakWJDGtYV51F/rAHK1jZs/jivZ7Wur4dc4nPHPuLbsep2iDQJrJ3a/BwM0c8bYc93ZJHgJSgW+Al4JoCRPfWjjOBaijNO5EgB7+jJX/P32KDuXGRMFx3o/US6Dc+Zjzzwcx7FxDh/X82NRWDnOV4/5ony3DjnmSzf5otyKf7RpzYAn5G/lXXIxNxvUzlg9po/HjMv7at3hOkUm6xRjyP9HHXXUDoVn5Kf6sOePdQCd6BOL5LjuxfE+7ibv4Fqlb+oMaBBYO7H7PRhklU4aBaNePSrYY1DqmuSRVOKmJBMTDn1zGXEMx/GOaEmmkoSSFjJjEsrnox059CfhKMFJb+/rObEMrPD5MuRa5nr9uiz8zZdu+rWUW8m7uiEQ8zL5Or/BoBxNntYYcUhtnGvdydcR+sRr9FXRCmfYtLaUdJVcxqErGzKlg/fd5B1+qvRNnQENAmsndr8Hg6rSSTsEMYFKMiA4eTyBjDxQY5DGJBOPGReTAzLyJCP98nE6n7fwZD7s0Tze13NiGVg5zteL/zJ8ukyZ5ks3+VIq5mKBqfwNN+KNAnFFxWVpTVAbffN1B7msSciMa0uuTzyPx5o/yo3X4Btz6Jr33eJfQz6oU7xBoEnxYEAuOiBiECOb4GcjQDmPgUqbglOFIdfox3U9Wtc4nZMAOJZM2vU3SSZtkq85VMDGZEcb58zBnvlceD6EsbBe595x3i1/rJMLNXObL93kS6mYI/crL3OsnE0u1mNy+Zw21oGYr2nL14i47tCXu5iaI65ZtMW7qoyLdzxZE/I1S+fSiX2cL173cTd42JAP6hRuELhVrJgMddjW4BSDmP6lQFYiUXLAZwR3/CQ8wcwrUgJd7ciSDkoeo8YH/ymJTJKp4lZjSGIxkZEs4sY58yHThefiOCIfzrPHT/OM99hu+XPZ/jBfuunvmK+Ve8n5XIcTtYUnfWP+RgY5WzmcvdYd+nKsgjFfs7iuTWsE643WgdKHi/K1RcXqsnlt+bPxuiEf1E3QINAL14MB2FXiEvxKDF3V0Xqtjz+O8/Vh30femy+bxxfdDV0UX1V4qihelFzLWT03G/JBnXINAjtbdJmI21/puvCs4/wm8sVxbm608N582Sy+cIeSu57xKVkLX0p9XXgOh0MN+aDO6AaBLjx9x9Mc6DAHSslf1xzndflQeG363nwZNl/yR934e9E3Llx4DodDDfmgzugGgS46elp0bPoiavsfRpg7fh2/1RwwX+rWT+cW47QJHGjIB3WEaBBYnbQ2wRG2sY5fxqkbODnOu+GHvsSD+WK+9IWr1nP5XG3IB3XKINCbETACw0XguOOOGxnnBF2XE43T9jvkw40IW2YEjEAtAo3rR12SZXIn2jqsjJNx6isHHOfmbgt3zRfzpYUv7jtsvjTkgzogGgS6QPV7xMyBnnLAcV6XD72AbsfJfDFfHAvmgDjQkA/qQGsQ6KKjp0WHyON9XUwMEadNiXN9kjb/0mo+sastfjF2/sMK+mTvODniRvzybeRqnNr7vsemvttg/Tc339n3i/V9Qz6om7hBoBORC09zoKcc2JQ4p2Dk+whVCJbO+Ym/0vcVqthkn4/T188gN//lliEucpvClyH6zjbV1T7GqR6nhnxQJ7RBoIuOnhYdDrC6WBgyTkOKc4o/bfqJP/mOgjEWlnmRqAJS4/I7nvrpvlwO8uPPCEqHePdUOgxhPyS+DMEftsE5fJ0caMgHdY5qELhD4UnCZeP3XW+66aatOwyTwGGM7kTk/WJSz9t8XudL42ScxnFg1jgfJ6+r1ykYyUns0XFS4ZkXl/E8HsvWUo7iGtu4vKax694fe+yx6eijj94hh0/SaVa+eF1wDprEK7f1kx8N+aDOwAaBW0mLuwTbtm0bJfUWIrnwrPNJC6bua0xrODBLnNfI7VofCsbawpM8xt1RxmAHRWS84xkf2etOaanALBWkXcPlKU95Sjr33HPTpZdemvbff/+tXD5Oz1n44nXBuWgcn3y939xoyAd1hjYI3EpWsyba2sKTJE9fLQiRtMxdSv6xj4/rfG+cNgenWeK8j/xoKTyxj1yijRfT/FFASU7+ISXGqAjVOBWrfcDr8MMPHxXbxx9/fNpll122cnqu+yx88bqwOfkk54vPh+37hnxQB0SDwFGSiomasUo2sRjU4xbaORYpY+FJYueOgjba1JfETzJHtsayz+e++OKLd3g/F30Ywx2PM844Y7SIsJBoizrmi0dsi3P6uI5HxqnbOBED9lG9j1R4sh8abrvvvns67bTT0vXXX58OOuigon2tfMlzs9eFeq4NjV+2Z3i+b8gHdcY3CNxKUEoqIlgsKElAsYiLbeOOVQSq8JTc0j6Xz7nGSQ765cWrCl3akMsYHcdxpTl9rY5Lxqm7OM0S55vszyEXnvIrRSfFJ0Uoxaius5+FL14Xuhv/0bc+tp9aOdCQD+rALQkkgWiLRaSUHZdgVMBprPYqDNkjj6QeP3mK3Fym5sr3eeEZFwiKTb1nKx5LhsaqCJV+2pds1Vjv6/hknLqJExy3b+p9E/PKkHHjcfsJJ5wwyps8hpetJb54Xajnj3D03pgNgQOlfDDGrjqHNwjcSkp5kaiCUoUn7SWl1G+RhSfzIJc5KRw55tq0wjMvfEv6+lodh4xT93GaJc7t1+77dVE+4gNHfPCIDyDtvffe0KWYwyfN53Vhc/gyiQduGx4PGvJBnfENArcS0bgEA+Eo/niPJUVoTkAVnipQ4x1G2lQ05uPiOWPiONooMpmTP451Lb5PVHc5VRTXzhfn9nEdp4xT93Aizr0ZgRoEbrzxxlG31jj2utC9uG/1ofvbhyUOkBBK1wvX6gBsELg18aQEgyIUdXGLxZ6KRhWC6hcLQYrHWDRG49TGOMlVIRsLXvrpU6qaQ3MjT2PU1qdPpkY8fFzH803HCZ5vOga2f3ysHHnkkaPH7aecckrac889R2mxFS+vC+PxbcXS/Y1llzjQsH7UOa5BYKcXLgrXWFiq8Czdee2SQ61LHU+N03w4DSXOzYP5eJDjd8ghh6Rrr702nXPOOWnffffdyvFD4YvXhcXyJeePzzcD34Z8UAdIg8CtpNQ1svFKm69m4i6qdHPhWed/4eX9sPEaQpybo4vj6HOe85x0ySWXjP44zrEdAl+8LiyOLzk/fL5Z2DbkgzpgGgTulJzWTb74uF6P3aWTC886/wsv74eNV5/j3NzckZvkPd5WFF9o12LEXU3ubnKXk7ud48b1mS9eF3bkyzgf+7pxquVAQz6oA7VB4NgkVau8+9X5xDgZp0VzwHE+HE7x9iEeIbcUnrxvk/dv8m0evJ9zGr/Ml+HwZZqv3W5fT+NAQz6oA7NB4NRkNU15t9f5xDgZp0VzwHHef07xFIcPQeZb/rSnxJ3jjjsuveUtb0m77bZbVR43X/rPlxIPfM1+nYUDDfmgDuA8ifncCBiBYSFA0cE2S8LxmLo8ukqc+BAlW/ww5bT5d9111yb/jybwPyNgBDYegcb1oy5hguq0pOX2OiyNk3HqKgcc58Pgpj4w88Y3vnH0gcqau52zcNJ8GQZfZvG9x9j3OQca8kEdeA0CXaA++P2fuUN8bkz6wAHHuXnawlPzxXxp4Yv7DpsvDfmgDogGgS66XHiaAz3lgOO8Lh96Ad2Ok/livjgWzAFxoCEf1IHWINBFR0+LDpHH+7qYGCJOjvPN9f0sfDZfzJdZeOMxw+RNQz6oA6BBoAvPxsJTP8u5rPdhbWKQg2X8adRNxGAWmx3ndflwFmyHOMZ8GQZf+AAaX701RI522aahrVMN+aAucBoELpW8+qQm+miLBRvfWcd30PGVIssmXP4za7POh/6Tgn5ae+28zBGxiuPAC9xavvMvjud4UV/Gj4/HfRK3xb+T7M11z3k1yR+lsS398/FdOiemuqSPdanLz+vCaVl8Ic5n/fL7ZWJB/sy3PFeRC/Jry9CJORaRd6ZhPW9eX5SeEcNamdzU2bZt28z1QO08Ubdpx7lMfDhuXY6ydIMq8q9mnGTk8+r6IvcN+aAusTUIXOrClYNH0PAzmFxfJICrlDWNeJBrEQlm0jxDLDxrcaOf745uzwNdifNVxp/nqlsDSjgtiy/TiqGSLqu4lucKFQOLyM+r0L80x7Q8OW/hWZpz3mt5HTBO3ryF5zi581zPdZ+Gv+aCY12vcxryQV3SmSRwmcS88sord3i1kjsNpyyiaJJzV70nwU67Q1tLzGm6b1rhmS9eOZeEV4lTagP7rge7dF3EflKcL0K+ZdTl277gNIkv86wLeezmeKwrLpk3f5Fak8Nz/bt0Pq2gmcePy7JzUs6Oc/ah8My5Xlqn9AIH/kX7dLyueND82k/KB+rz//u6RDhJYA0xIYo2AheyMw4l2OuXNthzLqA1hruaOKhEOPUF/JgE5NDzzjtvJIY5x80nUJChTbrQxlhtSjwxYKVD3oex6AyZsEGbCISt+SNu9I59mUe657oIF64ji8cK6MK5dNJcyLjsssu2sM7HRj0iDrEfcvUn+bKJueP80a/0AQeNRRfpxTWOhWuOV/RD9C/j4hyxH23op8cswjTqIF0kI+pDG33jRjvXwBBdNR/X5B/5gHm1qQ2ZyNAGrvAin1d6rWOPbuuY13M+FFd9wmISXxQLykclu2I8IEuxoNxNfGhTHJXiEtlRVsxZ9B+Xfxmn+GcexbSuE8fEOxtymEN5KtqDbrRzLR5zLc8Xed7UOM2JDtqER7RNOjJOmDA29mG8xpawlA3SRX2Ro2vSAQz4kx/H4ZXrUNITnaMv6MPc+ItNY5DFH/Zpy30abVd/9syhjTUNW9GZtnl0Z6ywkHz5IJ5Ll6hHtEtj1A9ckYv8SesU4yIGGh/nQQ/w5FrOuzgvx9EPGieZyNDGnPSNHFG/fM+Y/NqY87qEN0mgHCJi5hPRnhc1coSCgj3jYt/oEMmM4Oka/SAXwCCHuaITI0EnzRfnlmz2pTm5jlza8mOda176RMKgpwKfOWNQa6zkyrYoS8f0pd84WRorwjBOfUtj5aNcp6gv4/TH3FGXKD/6gf6cg0HURce0xzlKeAm/KHeSL5FZ4o90z/fSD55Hm9CFP/XnWNyN1zQG7GiXbbm+4iZj876St879pDhfp16e+6G46xIWk/iS55Fcb9qVc2jjnDhnr3hU7CmX6Zy9jjU25tFp+UR5cFIOQQ9iOc4T5UZ7iH/1i8dcy/MF7coPsovzmCui7BwntSE75p1WLJmzlCOjXOZijlq8og4lPZGtXE576Vw2abz29OVP40r9cqywUfhP8/U03cUH+a50XpKBvoyRvtigY9pKPpDN+R452qQHfSI2OpfdkhHn5Tj6AVnRx9iBfYzN7ZS80n5SPsj61yW0ksAIgsCIxmiiaDDXItAlGQIs9hsnS/IADVkxeOOxxk+aL9czly0Z2kMexpTmwVlKhLncGACxH3JLstCZucBDdkqHSbLy/tJ33FgFDfrmW+7XXDYyoy3oLCJrPuTyxzm60EdtsX+OV+RBxIcx+SbuIDeO0zzT9rIL/egbdda52iQr6gsGwlHtsjXamLfpfN178Fy3Dp6/Lid3AacSX0pxmecPdI9xI1sUKzHO1YZcxV4pLvNcoDnzeWLOLOmqHFKK5VIMox96MU9+XJobvfKNfuNk5zKER7wej9U+CUv685fnSOU/dJGcPK/nuguvkg7IiNfjMW3MI5/qPK4btMVNfXM50jW/Hu1jrnxr0T3nQ+QR8+ecRZe4ya5JOsqOaXt0QXf5CZn8aVw+B9fjtXhMW7QFmdJV8sQlnY/bY++4tux6XZKbJDASMxM+UiI3MidDbqRkxH66lsvieiREdH4EU+NLoKqtJLsUiOqPMxgT51RbxIQ+/Kkt6hWPaS/JQmfmKukSx8c5kZX3l74lPSKGJRw0RvtcNtfj/CWcIw45kWP/fH7mio8i9GosjpFecR/HxevTjqMdUWfG5ee6hj0cx7GaR7aW9FWb+q57PynO162b56/L1avEaRJfSrEQdcvjnDbFw6Q8SL88DkuyNFfeN+bMUkxqXEn/Uv9cV2xgzpKeeV/Nxb4kWzKQGfvm10v2RyxZY5lbMiIm6kfbLHk9yqzRU9gwDpvjmIhBblM8j8ean31+Pa4BUXYcUxqn9igv50PkEf2jb/O54nmUybioo+at2SOHP/rG49K5rgnrvH+0JeoqPSJHdK20n5QPsv51yWySwNwh2QQjcunVJ23055w9BnOMsfm4kkMATOBJFpW/HBCdH8GU7EnzoU9+t4px+ZyShR6aNx7Tzrn0pI/60Rb1ivrSpsCP/XNZkkt/+qlwz/XnPL4qYpz6ThrLOPmHfuP+ol65vNyuHHfG5jZKN65HvsANnUe5ucxcT9rzhJv3KZ0zvzDmOOqZn8tu9Qc73emWbNqwIcd1mv4av8r9pDhfpR6ea3zcdQmbSXwpxULUnfaYb2N8KDYUe3lezOMwjo1zcJz3jXlB85TWn5L+9FOeQrbGK/65xrH0zudWe+zPNcnSi2pdY5/jpDZkS07eJ+IR7Y1jpWPUl3bOJZdz+slm2TsOr+jPOJfk5XggR230j/hyXTrK/+rLdR1rHo3XWsF5jgNts+qOrJjbc1w5l/9y/dBVGOZtuZxoz7hj4SFbkMmf+ufnXI/z5u1Rh4gZ42gbh5vm035SPlCf/9/XJbgGgVvGx4kwVBvOwQkYSB/2FEja5CDaNE5k0rn6shf49I/Oj2BGXWrmQy460VdO5hqb9CsFxvYeD/WRDegtHXK9kJPbgL3aaOdP4znWJlxKbehJoEg2bxDmg1bCOo7Fzpg0GBM3zc9etuS4MFcMzBxnjUPXvI03Qmss/dBTGMgPjIv+LcmRb2jDBp0zDnlRB/rwx7W4aUwuH3n0zWVwLnywS3ZIPm3yQcQVfZhLbeq/zj04rHN+z12Xj7uC07x8ifGALMUC8Urc6IM9tCnGsD3mD43JZal/HrN5/o2ymEfxX4rlfA765/mAeXUtnxvd87wZ81suX7YhR5v6c002Infc2Nxe+ka9GBfl5PpNy+vCS3In6Rnnlc5xbnSRPOVs5GEzXFDfaHsck+swS62h+fB/nCfnQ44r5yo8cwzz9U12CIPcZualTX+5PHSMfSKHwYO22C5cNG/entuCDG0t6xRjpPOU/UPGTerYIHDqxIAImQFr0pyb0pYHTlft7pvfCDKw7Sqe6NU1HRcZ513G3brV5f1pOJkvi8FxGs7LbI8F0zLnWZbsvIha1jzLktu1NaBkZ62ODfmgLnAaBE5d6CkGqKIhfMnITbumVzNdL5J4ocBd0z74pw/FPHgSB116AbbIOO8DT6xjXf4fh5P5Mh9+43Bd9XWKN4qLVc8773ysnejd11piaOtUQz6oC5wGgTuRF1KwwMat60XWvAHh8XW82iSc9AIjxkH+OGTdeMwT5+vW3fOvPubMl9Vjbp4b82VyYJ51qiEf1DmxQeBOhecyQbLsOv8ZJ+NUwwHHuXlSwxP1MV/MF3HBe3OhIR/UgdUg0IVneFOwg7GOX8apGzg5zrvhh77Eg/livvSFq9Zz+VxtyAd1yjQIdOHpwtMc6CkHHOd1+dCL2HaczBfzxbFgDogDDfmgDrQGgS46elp0iDze18XEEHFynG+u72fhs/livszCG48ZJm8a8kEdAA0CXXi68DQHesoBx3ldPvTCuR0n88V8cSyYA+JAQz6oA61BoIuOnhYdIo/3dTExRJwc55vr+1n4bL6YL7PwxmOGyZuGfFAHQINAF54uPM2BnnLAcV6XD71wbsfJfDFfHAvmgDjQkA/qQGsQ6KKjp0WHyON9XUwMESfH+eb6fhY+my/myyy88Zhh8qYhH9QB0CDQhacLT3OgpxxwnNflQy+c23EyX8wXx4I5IA405IM60BoEuujoadEh8nhfFxNDxMlxvrm+n4XP5ov5MgtvPGaYvGnIB3UANAh04enC0xzoKQcc53X50AvndpzMF/PFsWAOiAMN+aAOtAaBLjp6WnSIPN7XxcQQcXKcb67vZ+Gz+WK+zMIbjxkmbxryQR0ADQJdeLrwNAd6ygHHeV0+9MK5HSfzxXxxLJgD4kBDPqgDrUGgi46eFh0ij/d1MTFEnBznm+v7Wfhsvpgvs/DGY4bJm4Z8UAdAg0AXni48zYGecsBxXpcPvXBux8l8MV8cC+aAONCQD+pAaxDooqOnRYfI431dTAwRJ8f55vp+Fj6bL+bLLLzxmGHypiEf1AHQINCFpwtPc6CnHHCc1+VDL5zbcTJfzBfHgjkgDjTkgzrQGgS66Ohp0SHyeF8XE0PEyXG+ub6fhc/mi/kyC288Zpi8acgHdQA0CHTh6cLTHOgpBxQsEagAACAASURBVBzndfnQC+d2nMwX88WxYA6IAw35oA60BoEuOnpadIg83tfFxBBxcpxvru9n4bP5Yr7MwhuPGSZvGvJBHQANAl14uvA0B3rKAcd5XT70wrkdJ/PFfHEsmAPiQEM+qAOtQaCLjp4WHSKP93UxMUScHOeb6ftHPepRM+Vt82Uz+TLE3Geb5udyQz6om6xB4EwJzE6v84NxMk7L5IDjfPP4tddee6U77rgj3X333emKK65IJ554YvrZn/3ZqjxuvmweX5aZfyy733xqyAd1hjYIrEpYJlgd7sbJOK2SA47zzeTbTTfdlK666qr08Y9/PN16663pBz/4QbrvvvvSDTfckN773vem3/qt3yrmdfNlM/myypzkufrDsYZ8UGdUg8BigjJ56nA2TsZpnRxwnG8m/17/+tenu+66a4fcTbFJ0UnxSRFKMUpRSnF65JFHpj322AO67DBmndz13JvJXfu9O35vyAd1So8yjP8ZASMweAScyOty4tBw+v73v58OO+ywsYUkj995DP+FL3xhVIhSqHozAkbACEQEKvPiZibZSnDGJmGPXy1vjjvuOPvCH1ozB5bIgYsuumj0uH1abttzzz0TReoHPvAB+2OJ/pjmB7evdg0y3gvFe6HCnIiciMwBc8Ac6CEHnvWsZ40ep09bYL/5zW+mz33uc/ZxD308zbdudz20Ig4Y6BUB7UTtRG0OmAOd5sBtt92W3vWud43VkYKTwtM50+umOWAOzMEBgzcHeE7ALiTMAXOg1xzYdddd06GHHprOP//80SP07373u0V7Tj311NF7O3nU7pzpddMcMAfm4IDBmwM8J2AXHeaAOdBLDjz3uc9Np59+errnnnvSueeem1784henRzziEaPH7Tx2j3nxpS996ejzA+zjdR97/TQHzIEZOGDQZgDNydfFhjlgDvSOA894xjPSO97xjnTzzTenSy+9NL3qVa9Kj3/843ewg+/z5INGyovc4eTrlLjjqWvee900B8yBOThg8OYAz4l4RcWHP9XuOHWczsaBJz7xiel1r3td+tKXvpSuu+669MY3vjE97WlPG5u7XvKSl4weuQtvf5hoNtyFn/fGzxzYiQM7XRibkAyesVoXB3jOt665Pa953zcOPOYxj0kvf/nL06c+9an07W9/e/SBoQMOOKA6hviOTr5U3h8mMvf7xn3r2wvO9kLJ6oRp0g3Tny48h+lXx+ti/fr85z8/nXXWWemBBx5IZ555Zjr44INnyp0f/OAH05133ukPE63oiY7jYLFxYDw7j2fnFZwpcZp4w/KrC89h+dPxuTh/8kGgv/3bv0233357+sQnPpH4ANCjH/3oufLmXnvtle6444702te+di459vPi/GwsjeWAOGBnDsiZg10kXHg6Th2nD3Fgn332SW9+85tHv6N+5ZVXpmOOOSb9xE/8xGDj375/yPfGwlgMgAN24gCcOPgFx4Wn43TT43SPPfZIRx11VLr88svTTTfdlI4//vi07777Dj72N93vtt+5b4AcsFMH6NTBLUb+VLvjdBPj9JGPfGQ67LDD0gUXXJD4wA9fafTrv/7rg4vvTfStbXZO22AO2Pkb7HwvYP7wgDnQQQ4ceOCB6Ywzzkj33ntv+vCHP5x+93d/Nz384Q+3rzroK68friHMgWYONA9w8nPyMwfMAXNgwRzYb7/90kknnZRuueWWdMkll6RXvvKV6XGPe5xxXjDOLhK85psDa+fA2hVwYnViNQfMgY3kwJOe9KTR92VeffXV6ZprrknHHntseupTn7qRWLgY8FpsDmwMBzbGUCdzFzfmgDmwdg489rGPTUccccToZylvvfXWdPLJJ6dnPvOZa9fLi77XQnPAHFgRBwz0ioD2wuKixxzYYA684AUvSGeffXa6//770/vf//500EEHmQ8bzAevO649NpgDdv4GO783C58/1e447WOc/sqv/Eo65ZRTRl/G/rGPfSwdfvjh6VGPelRv4q6PmFtn5wpzoPMc6LyCTtK+K8DXeJoH5kEvOPAzP/Mz6a1vfWvatm1buuKKK9JrXvOatOeee/ZCdy/YXg/NAXNgBRwwyCsA2YvOnEWTC0/HaZfj9Md//MfTq1/96vT5z38+fe1rX0tvf/vb08/93M857ueM+y773Lo5J5kDM3Ng5oFOqk6qK+OAC0/HadeS/A/90A+ll7zkJemf//mf0/e+9730nve8J/3qr/7qymKia3hYH8eoOWAOVHLAQFUC5QVljYW2C0/HaVfi9HnPe1563/vel77//e+nD33oQ+l3fud30i677OL8sMb80BVuWA/nKXOgigNVnZxUnVTXygEXno7TdSb0X/iFX0h/+Zd/mb71rW+lT3/60+kVr3hF2n333dcaE+vEw3M7Hs0Bc2AODhi8OcDzwrOigtyfanecrjpOn/zkJ6c3vOEN6ctf/vLo78/+7M8S11ath+cz980Bc2BgHLBDB+ZQL4wrKobNm+HlDu5i/tEf/dHoriZ3N9/5zncm7nba18PztX1qn5oDa+PA2iZ2MneBZA6YA2vnAO/PfOELXzh6vybv23zve9+beB+nFyWvDeaAOWAOLIUDSxHqpO2CwhwwBzrNgV/7tV8bfRKdT6R/9KMfHX1CnU+qe6HxmmAOmAPmwFI5sFThTuIuPswBc6AzHOC7NfmOTb5r81//9V9H373Jd3B6kfE6YA6YA+bAyjiwsomc3F2AmAPmwMo5wK8G8etB/IrQV7/61dGvCvHrQl5knPvNAXPAHFgLB9YyqZO+C5AmDvhT7Y7TlgWC30Pnd9H5ffQ77rhj9Hvp/G56iwz3NefMAXPAHFgKB5Yi1AneheVCOeDv8XSc1iwABx10UHr/+9+f7r///nT22WenF7zgBQvlYY0O7mOumgPmgDkwkQMTG520XUB2ggMuPB2n4xL5M5/5zHTyySenW2+9NV100UXpiCOOSI997GM7wdtxOvu6+WwOmAMbzAE7f4Od35vF2YWn4zTG6VOf+tR07LHHpmuvvTZdffXV6fWvf3160pOe1Bs+R1t8bG6bA+bAhnHADt8wh/dycXbh6Th93OMel175ylemz3zmM+mWW25JJ510Utpvv/16yWfnHPPZHDAHNpgDdv4GO783i7YLz82M04c//OHpRS96UfrIRz6S7r333nTGGWekAw88sDe8dW7ZTN7a7/a7OTCRAxMbneD9Hs9OcMCfat+sOP2N3/iNdNppp6W77rorXXDBBen3fu/30iMf+chOcNELymZx0f62v82BhXNg4QK9OLhYnYkDFJdPfvKTq8fy/YyM2XXXXavHOIF0N95//ud/Pp1wwgnppptuSpdffnk66qij0h577GHfOp+YA+aAOTAsDnR3IXKRsFm+Ofroo9O5555bnWBOOeWU9Ja3vKW6v/nUPT7ttdde6ZhjjklXXnlluuGGG9Kb3/zmtM8++9inw1pk7E/70xwwByIHurcYuUDYXJ9ceumloy/+nsaBfffdN33nO99Ju+22WySzj3uQ3B796Eenl770pekTn/hEuv3229O73/3u9KxnPcu+64HvpsWl2zc3d9v39n0DBwxWA1heHJe8OO6///6jgnL33XefiPU555yTjjzyyIl97NduxfbBBx+czjzzzPTAAw+ks846Kz3/+c+3/5YcT46BbsWA/WF/mAMjDpgIJkK3OMD7/PhgyTi/POc5zxl9f+O4dl/vjj8POOCA9K53vSt9+9vfTp/85CfTy1/+8vSYxzxmrG/tu+74zr6wL8wBc2BJHDCwSwLWi+uMd3N22WWXdP311yd+/lC+iZ9qv+SSS9Ihhxyy1aY+3ncjlp/2tKelN77xjem6665LV111VXrd616XnvjEJ9pfM8aDed0NXtsP9oM5sDAOLEyQFxYvLAvjAEUnxSdFKMGu7/Gk4KTwdALoVtw+/vGPT6961asS79G9+eab0zve8Y70jGc8w35yTjAHzAFzwBzIOdCtBcwFhf0hDvC4/fjjjx8RVoUnP5HIo3b18X59fHnEIx6RXvziF4++ieCee+5Jp59+enruc59r33iRMQfMAXPAHJjEgfUtXC4ajP0kDvABIz65zgeO2PgwER8qmjTGbcvnFIX/3/3d36W77747nX/++enQQw/1d6l6kXFcmgPmgDlQy4HlL1QuBozxrBw4/PDDR49vKTwpQvkapVlledzsPHz605+eTjzxxPT1r389ffaznx29CPjRH/1R+8ILjTlgDpgD5kArB2ZfjLyQG7tVcIAvlWfjC+NXMZ/n2M7rJzzhCem1r31t+uIXv5i+8pWvpD//8z9Pe++9t33gRcYcMAfMAXNgHg64eHKh0W0O/PRP/3S68cYbEz+RaV8t11c/8iM/kl72spelCy+8MN12223pb/7mb9Iv/dIvGXcvMuaAOWAOmAOL4sByF7JVFQqjW2L+ZwSMgBFYEgKrymV9mmdJUFusETACPUWgMn8Np/CsNHhRFbvl+NXf4DjAHU/H0c45kTXAuBgXc2BnDhgTYyIONOTJYYDWYLAXEBeM5oA50MQB55fyOmFcyrhoIfbe+GwSBxrywTCI0WBw04KzSaSxrcOIBftx8X50filjalzKuDgGjcsmcqAhHwyDIA0Gu/D03S5zwBxo4oDzS3mdMC5lXDax6LDN5kJDPhgGWA0GNy04DqZh8MN+tB/n4YDzS5k/xqWMyzxc81hj2lcONOSDYTi5wWAXnr7bZQ6YA00ccH4prxPGpYxLXwsH621/zsOBhnwwDKAbDG5acOZxgscOg1v2o/3o/FLmgHEp4+KcYVw2kQMN+WAYBGkw2IXnhtztuuaaa0ZfhL6JCcA2LzavOb+U8TQuZVyGGH/Op5vj61n525APhgFmg8EuPF14mgMbwoFZE2g+zvmlvE4YlzIuOX+GcO7Cc3N8PStfG/LBMMBsMNhFx4YUHU6Uw4jtWZPgIsc5v5S5ZFzKuCySe12R5Xy6Ob6elXMN+WAYYDYY7MJzgIUnSVHbN77xjfTsZz87xUT5pje9Kd13333qsvUInn7013bnnXemQw89dPTHsTbJnDUgPa7feQYe2Ic7+9C47IzJEHjifDpMvy6bmw35YBgANxjsBaTHhaeKyVNPPXVUMFI4XnjhhaMiMw8q9c2vU1hSSLJHDv3yPsjkL15nrm3btiWK2HFzxv4+HkZuwY/OL2VfGpcyLn2JfeVI59N++7ErfGvIB8MAvMHgHYqJrjjMekznYSlJ6o4liTPHUP25nt/x5O4n1yg+ubOpc8lQf90B1fU4n4vP6T4Tbn3fO7+UfW1cyrj0ge/Kj7HojPktt0H9ua78iP/ZlD+dT/vLh9zfs5zDhcpxwwCqweBaYNyvQ3dGldBU7OnRd02iZOx3vvOdUbIkKPJzrklOXmhq3nw+9OAv718ZdOZWh7hV4zPnl/I6YVzKuNRwap19lNecT/vpv3VyZ9LcDflgGMA3GOxFv2eLfiS6XnXHV+lKnrEfx+rLq3MKT5It1xmrV+hxDMWnHqXH64yj8Hzb29621T5uzjjOx8PILfjR+aXsS+NSxqUvsa8c6Xzabz92hW8N+WAYgDcY7MKzx4VnKcB0txIOsOnupJIqYygUtVFcqsAk4caNMXl/2hlfmtvXhpE/pvkRDkzrs4ntxmV4/Hc+HZ5PV5WbGvLBMEBuMNgLyMAKz1UFlecZRq6YxY/OL2XfG5cyLrNwzGOMZd850JAPhuHsBoNdeLrwNAfMgSYOOL+U1wnjUsal7wWE9bdfZ+FAQz4YBsANBjctOLOA7zHD4JT9aD+KA84vZS4YlzIu4o33xmeTONCQD4ZBjAaDXXj6bpc5YA40ccD5pbxOGJcyLptUbNhWc0AcaMgHwwCtweCmBUeAej8MntiP9uMsHHB+KfPGuJRxmYVjHmMs+86BhnwwDGc3GOzC03e7zAFzoIkDzi/ldcK4lHHpewFh/e3XWTjQkA+GAXCDwU0Lzizg92UMXyVU8wXo9NPXDK3DtnHfr9miS/4VIfClxvaWOfK+fP9n/OL6vF3n+jJnfQ2UrrPXL4T465zWm6ecX8r4G5cyLjGGl31Mbo5b6TuKF6lDbV5Tzi3lWeW8da4ri8TEsrbHQUM+WH/gLMJpDQa78Pz/u11XXnnl6PssKSwn+aDvhaeS3KqLt9oErX633Xbb1q8ryR8kZq6vWnfN731zQp0YS0PD03l3feunCrtVF2/KV7wonsRn3TCg8MzXGPIZeW3Vuk/S123zc7khH8w/WRcc1mDwxGDpgi2r0IHkwR02EgJfpk6SGDfvIgpP5JNkmHfcPOOuK4FNS3TjxjPvOhJcbYKWL3ghEAvMcdfH2enry8tlzi9lbI1LGZdVxCK5ovSUZNlz1+Y15e3LLrtsh/w77vqy9bb85XO1IR8sX5lVOLzB4ObCZxX6r3oOkhZ/SgKxqCOx8CpVWyzcSm3SnX4kGR71sOkRSz5GyZL5teWPh2Ibj6sZIx3Zaw7G0zfqcN55543mZn5+5lIFtvqU9pNkghEytEl/5ORtFI/gwPU8Qcc5or30k47xRYAKfuzLbZQuwhhd6MP88l0+h64zNtpQwsPXdsyLYGZMdsQEPIzLzpisiifkmZgXSvPGnIOvYv88d+U5gb7aaGM+5NXmNeSTz8hjjGccOiKD62eeeeYOBSnytdXmtdyGOK6Eh68tl6/4rxLj5SpSqUStsmP7NRg8VsaqdF33PEoIJAB0IcHEhBQTmgKba7neuRz6xOSFTJ2ruFLyyWWpyOI6eo37bfU86XFOsmE8Y9EhJp+8v+yBLyrM8j4lmTk+woPrOtb80Wa9xxOZefKVjWo76qijRglZfkEudjFHnD9iF9s4jrYzVuexXxzv47r85/xSxsm4lHFZdlwpjynvMR/5QhvX58lrtTlYuYs9OsRxcX1QLqOPchE6xtwZMVMf9Vce4zzmtUkyojwfr4anDflgNQot2/ENBu9UQC1bt67JJznEO4ZgVyqWpHcMbhIMSSButNOXJELC0LiYlOKx2ukbN+nA9ZiQYgJjLvWLcjRvrkMpQTOuViZ6q3jUfODHK/ZXv/rVI11kP+1qQ34cS598i4WvilLs4C/ipWuaHxvjJqzop+PcRvk8JnDJ8356DgRv47QzTsZlZ0xWxZM812lerpNvJuXKmJs0LuauSbkkjp2U1/Ici16la5qf9rhxTts0XchpyqWS5f16eNmQD9aj4KKJ0WDwxi8geSETk0FMKvIRyUVJgwKJc9oYF8/pg2yNi8VTPKY9T4rxfFKiif00T7QHHaSf2rnGn87ZR5snySzhoQTdWnjmBbP0idhINo+hhGW0L8cmnsfj3MY4F4l6nC7q5/2OedH5ZUc8xA/jUsZF+CxzT7yX4lg5cNa8Rm6clEtiTizNIZtjjlWOoz9vB6IPx8rL+XzxPB4zLsqNc4GFX1ivj4/4oiEfrFdREWfefYPBOxQg887bt/ExaUTdFdwENQHMudpVuOVjdReNBEJf+sVEiAydK/Gwp6/mi3OoL/JiAmEeztnnOnBOW9RBx5ItPaNNMXnVyIxjhYdsVvKUXbIjys31lG7saWMMe+EfX8Ezt+ZnLh2rr+bnesQtx1Fzxvl0zfvJedD5pYyPcSnjsop4Uk5R/GtOzol92uPTGvVXfoy5hLGcS1aeO8bl4FymdGAfc6zkwxfNz17zRV1mzWv5fFEXH6+Gpw35YDUKLdvxDQZvFVTL1qmL8gl2FUZRPxJLfM8hBYy2PCHpOnL05nFk0a/04SLNQzsb43S3ULIYhyySB/0porShF2PQkTYVkmpXISYdlNg0L3slSI1hH4u7STKVCDU24pe3YYPsyBN/Pofk0I9j9uia+wj7ZGO0A/3jJ0bpM+7DRbTFTfIiRj4enwvBzvjsjI9x2RmTVfIkzz+KceXAPOfEuM/HKh9J/5gzYg6uzWvIJxeiAzLZa43hHB1ZEzieNa8hI26SJxu8Xy0/G/LBahVbFhEaDPYC8mCgL8MPBL0S3jLk90EmyVWF56r1ZaGIC8uq5x/yfM4v5ZxhXMq4DC0W8iJylfY5r/WHYw35oD9GTSJ7g8FLKbom6bYpbS48d3xctWq/O0EvL5c5v5SxNS5lXFYd+8uejxsK8W08y54vynde6w/HGvJBf4yKZMyPGwx24ek7ngvjQP6oZ13JmXhwgl5eLnN+KWNrXMq45OtT387jo298zLaup1nOa/3hGDyp5Hp/jJpkUIPBtcC435IK1El+dNsw4nFofnR+KfPSuJRxGRr/bY/9XMOBhnwwDEAbDHZB6YLSHDAHmjjg/FJeJ4xLGZeaRdp9jN3QONCQD4bhfAz2ZgSMgBFYNALHHXfcSOTQFolF2LNorC3PCBiBfiLQmCeHU3guIpFaxjD4YD/aj4vkAEvBIuUNRZZxcZwNhcu2Y34uN+SD+SfrgsMaDPYC4ses5oA50MQB55fyOmFcyrh0YU20DvbNqjnQkA+G4ZwGg5sWnFU7zvMNg4/247D8uMz8wieI+fJuvvxfG19Nxqd5tcUvxh73peDj5IiL+TcwIF9ts+7Rb9axHjesGLE/7c+GfDAMsBoMdqL03S5zwBxo4sAy84u+ukaFYOmcX3zRL8DEBV7FJvt8nH6ZBrnL+gLwZeIS7fTxMNZp+3HYfmzIB8MAosHgpgXHgTIMftiP9uM8HJg3v8S7l/n3IVIwxsIyLxJVQGpcfsdTP/2ay8FexuhuqXTQ+Tx4aOy8uEiO945Pc6D/HGjIB/03FsI2GOzC03e7zAFzoIkDy8wvFIw8amdPLptUeObFZTyPx1rEY+EZr2GP7rDqOvtjjz02HX300dXYzIoLxS8bdt90001FXaJeHDOmpDNtJTvz8T4fxlpvP3bXjw35oLtGtBCsweDqpNoyv/sOg0f2o/1Y4sAy8wsFY23hyd1O7o4yBj0puOIdT345S8WZ7pTqPNo1rlB7ylOeks4999x06aWXpv33339qrpwFF2zYtm3bqMCOOk07duHp2JzGEbevlyMN+WC9ii6KKA0GT02mi9LJcobBLfvRflxmfmkpPOEihaQ2Cjj+KOYkJ/+QEmNUhGqcitVx3D788MNHBe7xxx+fdtlll7E5cxZcxhW943TR9drCE1vpq+Jc49kzd6kQj3187Hg3B2bjQEM+mG2CrjmmweCxSbRrNlmfYXDTfuy/H/uQX1R4lgquWTi4++67p9NOOy1df/316aCDDirmzVZcYtHMWBWhsRikaNTGsXSPhSc2cndXG23qq/fAIltj2edzX3zxxTu8t5Y+jOHu8xlnnDEq6CnqtUUd80I+tsU5fdz/2LcP631IrFTiVS+0UmDtxAvt12DwQuftMibWbRjcth/X78c+5JdFF57iHUUnxSdFKMWorrOfBRcVm5ITC0oKuFjExbZxxyoCVXhKbmmfy+dc4yQH/fLiVYWuilnG6DiOK83pa+uPX/tgNT5oyAerUWjZjm8weIfEuWy9LH8Y/LIfN9uPfcgvyyo84T6P20844YTRHUIewyseSrhQkGmLRaTG0K5ij2sc008FnMZqr77qh53xWwCQkcvUXPk+LzwjZhSbev9sPJYMjVURKv20L9mqsd5vdv7YFP8TC5W2DoMQDQbXAuN+Dyb0ShK5n7EaNAecX7bnAj5wxAeP+ADS3nvvDSzNfs+LRBWUKjxpL+Ud9Vtk4ck8yGVOCkeOuTat8MwL35K+vub1Y9M40JAPhkGOBoOLSW3TCGJ7h8F7+3E1fiS/eNsRgRtvvHF0oZWD4wpP5FD88R5LitBcrgpPFajxDiNtKhrzcfGcMXEcbRSZzMkfx7rGB7BUBOsup85r54tz+3g1sWqc14czCaES//UpWalglSENBlfJW6RuljUMjtmPm+tH55ftvj/yyCNHj6NPOeWUtOeeewJLcz6dVHgSYxR1cYvFnopGFYLqFwtBisdYNMa4VRvjJFeFbCx46advDNAcmht5GqO2ad8SEHXw8ebmkaH7nniotHEYJGgwuBYY93swwVaSyP2M1aA5sOn55ZBDDknXXnttOuecc9K+++675euh4ELhGgtLFZ6lO6/OiV4XzIEyBxryQVlA34BtMHgrafbNRus7DK7aj/3z46bml+c85znpkksuGf1xnHN3CLhw55OvZuIuquxz4dm/GJXvvF+f7xrywfqUXCRBGgzeSi6LnN+yhsEj+9F+LHGgr/klf6xdsq10jbua3N3kLid3O0t9uNZXXNA9Pq7XY3fZ6cLTeUBc8L6eCw35oF5olx3QYPDYJNpl+6zbMHhqP/bTj33MLzw6ZuMxci3veN8m79/kU9u8n3PauD7iMs0mt/czRu239futIR+sX9lFEKbB4KnJdBH6WMYweGU/2o9woG/5RXc6ta/l8XHHHZfe8pa3pN12260qT/YNl1oc3M9xbw60c6AhH7QL76JDRiuD/xkBI2AEFowAxRhbF/PeNJ1aC89dd921yc4FQ21xRsAI9BSBxjw5nMJzWhJ2+zB8bT/aj6vmAGvBqudcxHythWfrnH3FpdVO93fOMQemc6AhH0wX1gfAGwzu5QLSBx9Yx2HEkv24sx/7ml9ceO7sS/PbmJgDy+FAQ55cjgKrdmyDwS48/Z2T5oA50MSBvuYXF57DWN9WvZ56PvNmFg405MlhANxgcNOCMwv4HjMMTtmP9qM40Nf84sLTHBaHvTcXls2Bhjw5DGc0GOzCs4d3u/bbb7/0ta99Lf3Hf/xH+qmf+in7sAM+/OEf/uF06aWXpv/8z/9MBx988KB90tf84sKz2+sb3yXKV1fxvaHLLgo2RX7+K1SbYncX7GzIk90OzFowGwxuDnC+D6/Lv8VL0kI/bffff/+oSPuTP/mTLVsvvvji9P3vfz+ddNJJW9dqsZ2l3x/+4R+m733ve6NC8elPf/rcc7773e9O9957b3r7299elMUCyxZ/9q5V72ViRDLMfx2lpJ9+A7qmik38EgAAE/1JREFUb2k8137yJ39y9MXfd911V4ocGNe/5bq4Jpz/9E//NP3P//xP+qd/+qeiX3LZ6HPLLbekH/zgB+l///d/0ze/+c109NFHV42VrGX6SXPke7iVX/N5975mCl7G31wf5yPikZxRal92sR7nRF/FUryu40l6qs+0PcUtmMRfZopjmJ954rXW40VhNslecg9F+jg7pPM0e9WPvfIt8a1tHC/iOB2j7yT/qd+m7MGw0lYXntOAglh9KDxZ0P/hH/5hVHRQfFIQ8J182Pfe97433XTTTemP//iPa4kxVz/ugF133XXpX/7lXxJ3xqZhPKmd8V/+8pdHd9ae97znFWWRLNjmSQLLxIgEVVNMKhHW9B2HGXiBO/gv+k5kXnhS5N5www1Viz13reEg3OTONZhwt/QVr3hF0afj7Fumn8bNCbfGtW3y9S7hQuzAqW3btk29g0i/cQXGooqoabxA32m6TtJzmny1TyvEhlZ4YnctbvSbZ80Qxt5vryMb8sHwC88jjjgiffrTn04HHnjgTIvHtMKT9nkKhXlJq2KAIJKs973vfemBBx5I119//egOmK73cf/bv/3b6bvf/W668sort+zL7VhE4ZnLXOQ5vqnhyCIKz0XqncsS12Ky/vjHP57uueeerTuXf/VXf5U+//nP73RnggUQDEp3pChgr7766mJbrsM6zhsS6liOrkPvZc85CRe4QmEFpxetB7kA+VGu5jvzzDOn3sGbVJisqvBE32l38CbpGW2fdLyJhWf0oV6QgEPESbmWvvG6jkscU5v35bpxUj7IMCsLyDoVHdOlPpMMrglwHkHffvvtiBndkbniiivSL//yL4/sVuHJ7xZz55NHhJ/97GdH7zW86KKLRo8NRwMf/Kfi7/DDDx897uaRIn8stlwDM/pwDrGRFeXRPm3sjTfemFjs0QXdsI9jzY0MFWv/9V//lV70oheN+sW7tvTN5fzmb/5muuqqq0b6oDPF3rHHHjvSmbto/Hbzf//3f49M5a7VeeedN7qbWbquIkM6MZ5iWOO5G4sNvF9TfS+//PKtx7D046f7sOUNb3jD6DH7ueeeOzrnGuPwAdhhl3yjgmgShnnbt771rXTYYYcVMcr99JnPfGZUVOV+22effUb68HYANvC57LLLtt6PCg7jCk8whntgzl1rHj/Hvn/913+d8GNJbmxDJwq+JzzhCSMuSAb8oDDkEbU4ftttt6V//Md/3DrnOnqALV8ETLu4G3kgrgln+pO4eZHzrne9azQeW+M5ffjT+3SRC8+0EPBWDIpOrmtDvnjxyU9+cnT3Fs4wP23isvqM4w68g6f0Bx/unIOleCndpu3Ra1qfTWyfhAu+mlZ44kttxBp+YRxYimu0y98qFjRGHKc/Y+EinECW+EUb17UxhnYVHOKQ2pEjfsgGYplNvKddm/oyT7SHduYYpzNt6EE7Y6fpmcuJY6WnZKkvcwgP1httuc7xfJxt0pH9JMxyO4SDxuW+Yb6IK1jjb7boX2yMhTq2aYv9mCfiwTHy6E9b/GPefKywy2XTF93QX3yMutMOxsjTFufM9aVvbI969fUYuyt139ERlYNqha+sX8lgFtIvfelL6atf/eqocOHR4xe+8IXEHdBo52tf+9rRwgxhzj///NFdQhbBSy65ZNQPQrFB+g996EOjPQsr7ztUwcqi+OEPfzi99a1v3Vpg77jjjlHRxELOYoceLLIK7BsfLCAp2mijUPmLv/iL6rEsojfffHN685vfvJWgkSu7FDwKKmxQsNBHOkjOCSeckCi2sePkk08ePZKnAKIA4XEtRQV9KUIoAMGRgB53XYlJOqmfMER3MP7ABz6wlcSQTzFJMc8xj2F5tF5KHIxjvOTRlw07VeCU8P/93//90QsC5BP4+JsPyHDHbRxG+In3MN59992jOZjzox/96CjBUGhSGIMpXOAxMO9v/eIXv7hD8QUO8oV8xJ5i/9Zbbx3Zi+0kNrigvuLmv//7v49ekHzwgx8c9YWHakMv9Pnc5z6X3vOe94x0ifMJP/xPsR99z5wUY2BJ8SedwIX3b8JJOAEGcFeywEp26JqSKDbxXs4f+7Ef2+qjvhT9FPps2IneBxxwQPr7v//70TwUwBTEvO9THKIvOlCswsXoJ/UZxx3eE8x7mxXbFELYKl5Kr2l7dJjWZxPbJ+ECLyYVnrQTS/gQ7OCPchTXYoES+5LbkMs1YZ73x7/iI23Mo/7smUft9BWflTfFD/VVO/NxHM81PtdBujGP5Oka+/x6i56MR6bkomfEWnYwB3Lhv3RWm87ZSw7Huq454rn0p7+uS55koEv0K+fMz76EUZTFcSyomUPnUS7H0V7sVD90zNuld2nPWG0c0webco6hi/gpOVF32pW3aY86TfOt5PV9PykfZLYNt/Ck2IEI3D2jUGSBppB63etet5WwAINCio33R3LO4sgHM0RkCBXv4IioXFfQRcKxaHKHKd8oMLn7CFljwYIcNuTWjGUhfcc73rFlA0FGQCBXzmUe5qNQ5O4nc8SgoW+Uozukuc7SkyJNxbHmYD/uupKddMr7UTBLZ/WlGP3FX/zFnTCVfUoKpXklDzsnYUjBim94XyLFZrSlhJHspx+2oDNzcf6pT31qC1PujlP46Y6ucJTOjI0c0bzSVfpwh44XSOorbkqe9hSJahNvJVO6SobwU2Gpc+ZhPvFdvjrxxBNHd10p5rQpFjQWrDSfsJetuj5uT0Gq2NQLOHFA8zBW1/JPzUc/qc847uQY5baO0zG/Dg75NZ+XP1wED/JNXIyY4UdxjutxsS/JUP6K/SSv1F+yaYu8YgxtXIc/sSiljesaC99jEaV8n9un/uzZYnyIo9I/6qxxmrdFT3RT8RWPkSU9a2yUHzRmnG3Sexpmkqf+7LFTumAjMtROm/CKx7TTT/2jL+ifb5FjOR6aa9KeMfgIPUscG2eXdM/bo+7IHOfbSTr1rQ2fVOo83MJTAETC6lrcj1ucRBQIFQvP008/fcR5ritYI+lVTHCX6GUve9koeCDhC1/4wtFdIIIr9kcOG+RsHYsdChjkyi69x5O7WRQXzBETX66DCk8K1de85jVbOlPA8lg7Lxw1z7jr2IuN0invp2KF9rxvjmnpUfs4edg5CUM+bNVSeEY/oWvEMGIqDnEHkTt+0adgleMt/KTrtMKTO4PgpD/er6w5awtPdGLenC8Rf/EAu/ERhRrHigWNlSzkwdsYH7It3/MWAP50PcaRdNA89NE1cUjjIu55n5w7OUZ5f8mctic+p/XZxPZJuMAVFUYlbPBj9G1c7EsLtWTEfrqGHMboHD/DJfYlWepP+7TCM9ogfsW5NGfcYxtb7Kexyik5Pq16xvHxGD00FzKn2Sg/xDHRlvy4Vl4cF/GWX9ROGzpwHo85Zy71x0a9CJDOkpHvczzy9nHnyOUPLEp3PKWnxkd9NVZtUfdJvlX/Iewn5YPMvuEXntzhpAik8MuMH53rkSUJYdKjdooyHlWy150aBSt3D/kk8VlnnZXi41wKkTPOOGP0SJE3vTM/ZFXy4RzCKknpMbEeHU4by3iCjIKIry/irQV83yWPEymw9BiYOWLRlOtAccqjdsZRrDIvj3OxiTn0aBvbWcyZ54ILLhh7naDDRuZhfM2jdvUVpsJId28pNpEV9SERoSd3vNiwcxKG8dE28vA3eKHvNIzQL2IY+6vA+bd/+7fRnXP0YtPCE/Gm2ORRPJhEfeAKH4JjDtkeufmRj3xk5BfeGnDMMceMvloK3sVH7fgQfOJ84gf60qZz4R19FQvPs88+e+t9tCoINVaykEdMwDXs4hxe8PaB/KucGMuThK985Ssj/vBYHZ6/853vHOGPzdjC2xp4y0LUC7n6i7jnfXLuxEft4Ke3Fch2yZy2x5fT+mxi+yRc8Hcs2nJ8iA3xnDb6c85eflX8xLF5UUB/FSSxHz6GK1Eu7VG2+BL5zDjxg7G5DfRVPMT58mP6Rbm0R91zvSfpyVjZo3lyPSMGyCKPgJ/slS65zVyXvRxPsy0fL90kY5Jd6IKe9GFcrhsy4vxRnyiXY3FFeMQ9dkufeH3SsexibPSTxqALfzpnzxy6lrdjG7awz/WV3SV+R/l9O56UDzJbHkroWcMOAHe9rcHgol28P4+iisKLR8r5h4tYEPngBsGsolBfZM7707jOWN7HyePiQw45ZLTA6nEl71HjLiQ4QtaYcCEsm0jYMhZ5kJr5tfF4mMeqf/AHf7BlK3PQh74lHbjG42Lsxn429nywgzZspcDADjbZM+66AkvBT2GL/RQeGo88xud9lQCEEY/E+XS+3vMpfSjUwBe7+NAPPsJO2idhGL9LEp/xFT/cQZyGEbZEDGN/7gzq+yl53M57NcFIPo0+5w5lfNvCseHDRV//+tdHvpPt2BK5ib7f/va3R+/BzTGN/orziR/CRufyTcQfmfowDnPxtUdwWouBxkoWvsm/TgnuqaBEf/3x3mrkKCbgApxgTv4+9rGPjdqYl/cQR70kg33EPe+Tcyfaw7x8CA2/yPYod9IxnJ3Uvqlt8+KCL7VRkMAP5ShxTe3iIFhrHHHCi4mSP4k9jeFYG2O4rtgUh9SOLMlDh7zwZH7a44asXI5iOM7NGMkuFTexb66nuK15ZZu4F3WiDb2lF23kJG3SQVjG8yiH/sjQ3BwzJreVMVFGtEMypKd8x3Vs5AYA12jnWPlH7cxFG76IxXU+R5yfY8kUj6S79JBNzKNNY+gjPeVHzmM7feI8eTt64wfpH/XNfSud+r4Hx0obHloYKgfUCl5pvwaDV6pXnzHtku7TvkC+S7pO04Xkyh1B7nZO69v1dj6AxN1OFgvpyouJrtqmRSguUtJ70t75pbxOLBKXUiE2ySdDaKNYaeXiOuzOi6h16FA7Z190xe95MVxrY1f7NeSDckLpqmHj9GoweGuBHCfL17vHCT0+7/tPZvLBGj4Yln/ArY+c424id8jzD/90yRY+Bc/bF97//veP3qbA3VnuqPL2jBY9nV/KOWGRuLAI6+5Si2/63JciKT567qot+Ca/29dVXeNdyK7qyAtguM6+qzrOoldDPignlFkmXeeYBoMH5eh1Yu65hxE7Q/YjhSePuyg22XjMrrd4tNjt/FLm+jy4UHSx+MZtaHeAWjjmvmWODQGXaY/1h2AjNjTkg2E4u8FgF54PEmQoRLcd9uUqOOD8UuaZcSnjsgpOeg5j3zUONOSDYTivwWAXXS48zQFzoIkDzi/ldcK4lHHpWkFgfeynVXCgIR8MwyENBjctOKtwlucYBgftx+H60fml7FvjUsbFucC4bCIHGvLBMAjSYLALT9/tMgfMgSYOOL+U1wnjUsZlE4sO22wuNOSDYYDVYHDTguNgGgY/7Ef7cR4OOL+U+WNcyrjMwzWPNaZ95UBDPhiGkxsMduHpu13mgDnQxAHnl/I6YVzKuPS1cLDe9uc8HGjIB8MAusHgpgVnHid47DC4ZT/aj84vZQ4YlzIuzhnGZRM50JAPhkGQBoNdePpulzlgDjRxwPmlvE4YlzIum1h02GZzoSEfDAOsBoObFhwH0zD4YT/aj/NwwPmlzB/jUsZlHq55rDHtKwca8sEwnNxgsAtP3+0yB8yBJg44v5TXCeNSxqWvhYP1tj/n4UBDPhgG0A0GNy048zjBY4fBLfvRfnR+KXPAuJRxcc4wLpvIgYZ8MAyCNBjswtN3u8wBc6CJA84v5XXCuJRx2cSiwzabCw35YBhgNRjctOA4mIbBD/vRfpyHA84vZf4YlzIu83DNY41pXznQkA+G4eQGg114+m6XOWAONHHA+aW8ThiXMi59LRyst/05Dwca8sEwgG4wuGnBmccJHjsMbtmP9qPzS5kDxqWMi3OGcdlEDjTkg2EQpMFgF56+22UOmANNHHB+Ka8TxqWMyyYWHbbZXGjIB8MAq8HgpgXHwTQMftiP9uM8HHB+KfPHuJRxmYdrHmtM+8qBhnwwDCc3GOzC03e7zAFzoIkDzi/ldcK4lHHpa+Fgve3PeTjQkA+GAXSDwU0LzjxO8NhhcMt+tB+dX8ocMC5lXJwzjMsmcqAhHwyDIA0Gu/D03S5zwBxo4oDzS3mdMC5lXDax6LDN5kJDPhgGWA0GNy04DqZh8MN+tB/n4YDzS5k/xqWMyzxc81hj2lcONOSDYTi5wWAXnr7bZQ6YA00ccH4prxPGpYxLXwsH621/zsOBhnwwDKAbDG5acOZxgscOg1v2o/3o/FLmgHEp4+KcYVw2kQMN+WAYBGkw2IWn73aZA+ZAEwecX8rrhHEp47KJRYdtNhca8sEwwGowuGnBcTANgx/2o/04DwecX8r8MS5lXObhmsca075yoCEfDMPJGOzNCBgBI7AsBPq6GCxT72VhbblGwAj0E4HKfDOMwrPSWN/t9CNWc8AcMAfMAXPAHDAH1scBF54uWs0Bc8AcMAfMAXPAHDAHVsKBlUziVxbre2Vh7I29OWAOmAPmgDlgDnSFAy48/QrHHDAHzAFzwBwwB8wBc2AlHFjJJF2psq2HX/GZA+aAOWAOmAPmgDmwPg648PQrHHPAHDAHzAFzwBwwB8yBlXBgJZP4lcX6XlkYe2NvDpgD5oA5YA6YA13hgAtPv8IxB8wBc8AcMAfMAXPAHFgJB1YySVeqbOvhV3zmgDlgDpgD5oA5YA6sjwMuPP0KxxwwB8wBc8AcMAfMAXNgJRxYySR+ZbG+VxbG3tibA+aAOWAOmAPmQFc44MLTr3DMAXPAHDAHzAFzwBwwB1bCgZVM0pUq23r4FZ85YA6YA+aAOWAOmAPr44ALT7/CMQfMAXPAHDAHzAFzwBxYPgf+D7r4uKWL4A3tAAAAAElFTkSuQmCC;" vertex="1" parent="1">
          <mxGeometry x="90" y="20" width="670" height="277" as="geometry" />
        </mxCell>
      </root>
    </mxGraphModel>
  </diagram>
</mxfile>
